<svg xmlns:xlink="http://www.w3.org/1999/xlink"  xmlns="http://www.w3.org/2000/svg" version="1.1" width="448" height="448" viewBox="0 0 448 448"><title></title><g id="icomoon-ignore"></g><path d="M195.29 252.709l50.27 50.27c4.5 4.5 11.421 5.518 17.028 2.51l60.245-32.343c4.455-2.394 9.841-2.276 14.19 0.303l87.899 52.161c6.272 3.721 8.794 11.501 5.859 18.181-7.509 17.095-21.184 48.419-26.616 62.276-1.139 2.916-2.843 5.586-5.209 7.634-58.581 50.779-175.132-11.092-264.344-100.305-89.226-89.217-151.097-205.769-100.319-264.349 2.052-2.366 4.722-4.067 7.634-5.209 13.848-5.431 45.181-19.103 62.276-26.616 6.673-2.935 14.458-0.411 18.181 5.859l52.16 87.899c2.578 4.347 2.695 9.733 0.303 14.19l-32.343 60.235c-3.009 5.607-1.992 12.525 2.51 17.028 0 0 50.27 50.27 50.27 50.27z" fill="#fbbf25"></path><path fill="#fbbf25" d="M431.993 244.8h-41.599c0-103.221-83.975-187.196-187.196-187.196v-41.599c126.157 0 228.797 102.64 228.797 228.797z"></path><path fill="#fbbf25" d="M351.107 244.8h-41.599c0-58.619-47.685-106.309-106.309-106.309v-41.599c81.557 0 147.908 66.35 147.908 147.908z"></path></svg>